<svg width="18" height="19" viewBox="0 0 18 19" fill="none" xmlns="http://www.w3.org/2000/svg">
<path d="M7.82685 0C10.001 0 11.849 0.760943 13.3709 2.28283C14.8927 3.80472 15.6537 5.65272 15.6537 7.82685H13.9144C13.9144 6.13103 13.3236 4.69234 12.142 3.51078C10.9611 2.32979 9.52266 1.7393 7.82685 1.7393C6.82675 1.7393 5.89188 1.97121 5.02223 2.43502C4.15258 2.89883 3.42062 3.53657 2.82636 4.34825H4.34825C4.59465 4.34825 4.80134 4.43144 4.96831 4.59784C5.1347 4.76481 5.2179 4.9715 5.2179 5.2179C5.2179 5.4643 5.1347 5.67069 4.96831 5.83709C4.80134 6.00406 4.59465 6.08755 4.34825 6.08755H0.86965C0.623249 6.08755 0.416852 6.00406 0.250459 5.83709C0.0834865 5.67069 0 5.4643 0 5.2179V1.7393C0 1.4929 0.0834865 1.28621 0.250459 1.11924C0.416852 0.952846 0.623249 0.86965 0.86965 0.86965C1.11605 0.86965 1.32274 0.952846 1.48971 1.11924C1.6561 1.28621 1.7393 1.4929 1.7393 1.7393V2.91333C2.4785 1.9857 3.38091 1.26824 4.44652 0.760943C5.51155 0.253648 6.63833 0 7.82685 0ZM9.00087 10.2184L7.21809 8.4356C7.13113 8.34864 7.0659 8.25066 7.02242 8.14166C6.97894 8.03324 6.9572 7.92106 6.9572 7.8051V4.34825C6.9572 4.10185 7.04068 3.89516 7.20766 3.72819C7.37405 3.56179 7.58045 3.4786 7.82685 3.4786C8.07325 3.4786 8.27993 3.56179 8.44691 3.72819C8.6133 3.89516 8.6965 4.10185 8.6965 4.34825V7.47899L9.91401 8.6965L9.00087 10.2184ZM7.89207 15.6537C6.03682 15.6537 4.38825 15.0957 2.94637 13.9796C1.50391 12.8636 0.601508 11.5301 0.239154 9.97923C0.166683 9.71833 0.192192 9.47193 0.315683 9.24003C0.438593 9.00812 0.630496 8.86318 0.891391 8.8052C1.13779 8.74722 1.35868 8.80143 1.55406 8.96783C1.75003 9.1348 1.88424 9.34149 1.95671 9.58789C2.26109 10.6605 2.85883 11.5843 3.74993 12.3595C4.64161 13.1352 5.67446 13.6245 6.84849 13.8274L7.89207 15.6537ZM12.7621 16.9582C12.5882 16.8857 12.4253 16.8097 12.2734 16.7303C12.1209 16.6503 11.9649 16.5523 11.8055 16.4364L10.8706 16.719C10.7692 16.748 10.6749 16.7442 10.588 16.7077C10.501 16.6718 10.4285 16.6103 10.3706 16.5233L9.84878 15.6537C9.7908 15.5667 9.77631 15.4725 9.8053 15.3711C9.83429 15.2696 9.88502 15.1826 9.95749 15.1102L10.6749 14.4797C10.646 14.2912 10.6315 14.1028 10.6315 13.9144C10.6315 13.726 10.646 13.5375 10.6749 13.3491L9.95749 12.7186C9.88502 12.6462 9.83429 12.5592 9.8053 12.4577C9.77631 12.3563 9.7908 12.2621 9.84878 12.1751L10.3706 11.3054C10.4285 11.2185 10.501 11.1567 10.588 11.1202C10.6749 11.0843 10.7692 11.0808 10.8706 11.1098L11.8055 11.3924C11.9649 11.2765 12.1209 11.1785 12.2734 11.0985C12.4253 11.019 12.5882 10.9431 12.7621 10.8706L12.9578 9.914C12.9868 9.81254 13.0337 9.72935 13.0987 9.66442C13.1642 9.5989 13.2549 9.56614 13.3709 9.56614H14.4144C14.5304 9.56614 14.6211 9.5989 14.6866 9.66442C14.7516 9.72935 14.7985 9.81254 14.8275 9.914L15.0232 10.8706C15.1971 10.9431 15.3638 11.0263 15.5232 11.1202C15.6827 11.2147 15.8349 11.3199 15.9798 11.4359L16.8929 11.1098C16.9944 11.0808 17.0924 11.0843 17.1869 11.1202C17.2808 11.1567 17.3568 11.2185 17.4147 11.3054L17.9365 12.2186C17.9945 12.3055 18.0128 12.3998 17.9913 12.5012C17.9693 12.6027 17.922 12.6896 17.8496 12.7621L17.1104 13.3926C17.1393 13.581 17.1538 13.7622 17.1538 13.9361C17.1538 14.1101 17.1393 14.2912 17.1104 14.4797L17.8278 15.1102C17.9003 15.1826 17.951 15.2696 17.98 15.3711C18.009 15.4725 17.9945 15.5667 17.9365 15.6537L17.4147 16.5233C17.3568 16.6103 17.2843 16.6718 17.1973 16.7077C17.1104 16.7442 17.0161 16.748 16.9147 16.719L15.9798 16.4364C15.8204 16.5523 15.6647 16.6503 15.5128 16.7303C15.3603 16.8097 15.1971 16.8857 15.0232 16.9582L14.8275 17.9148C14.7985 18.0162 14.7516 18.0994 14.6866 18.1644C14.6211 18.2299 14.5304 18.2626 14.4144 18.2626H13.3709C13.2549 18.2626 13.1642 18.2299 13.0987 18.1644C13.0337 18.0994 12.9868 18.0162 12.9578 17.9148L12.7621 16.9582ZM13.8927 15.6537C14.371 15.6537 14.7806 15.4835 15.1215 15.1432C15.4618 14.8023 15.632 14.3927 15.632 13.9144C15.632 13.4361 15.4618 13.0265 15.1215 12.6856C14.7806 12.3453 14.371 12.1751 13.8927 12.1751C13.4143 12.1751 13.0047 12.3453 12.6638 12.6856C12.3235 13.0265 12.1534 13.4361 12.1534 13.9144C12.1534 14.3927 12.3235 14.8023 12.6638 15.1432C13.0047 15.4835 13.4143 15.6537 13.8927 15.6537Z" fill="#5C5451"/>
</svg>
